<?xml version="1.0" encoding="utf-8"?>
<!-- Generator: Adobe Illustrator 26.0.1, SVG Export Plug-In . SVG Version: 6.00 Build 0)  -->
<svg version="1.1" id="Capa_1" xmlns="http://www.w3.org/2000/svg" xmlns:xlink="http://www.w3.org/1999/xlink" x="0px" y="0px"
	 viewBox="0 0 229.8 215.75" style="enable-background:new 0 0 229.8 215.75;" xml:space="preserve">
<style type="text/css">
	.st0{fill:#E4D4C2;}
</style>
<g>
	<path class="st0" d="M718.41,1640.41h5.16v5.16h-5.16V1640.41z"/>
	<path class="st0" d="M728.73,1640.41h5.16v5.16h-5.16V1640.41z"/>
	<path class="st0" d="M739.06,1640.41h5.16v5.16h-5.16V1640.41z"/>
	<path class="st0" d="M843.05,1784.92h20.9l-12.9-41.29h11.87v-25.81h-12.13c4.13-2.84,6.97-7.48,6.97-12.9
		c0-8.52-6.97-15.48-15.48-15.48c-1.81,0-3.61,0.26-5.16,1.03v-60.38H708.09v129.03h53.42l-8,25.81h20.9l8-25.81h52.64
		L843.05,1784.92z M856.73,1779.76h-10.06l-11.35-36.13h10.06L856.73,1779.76z M764.86,1707.5c0-5.68,4.65-10.32,10.32-10.32
		c5.68,0,10.32,4.65,10.32,10.32c0,5.68-4.65,10.32-10.32,10.32C769.5,1717.82,764.86,1713.18,764.86,1707.5z M763.31,1722.98
		l7.74,15.48H759.7v-15.48H763.31z M776.73,1738.47l-7.74-15.48h9.81l7.74,15.48H776.73z M792.21,1738.47l-7.74-15.48h9.81
		l7.74,15.48H792.21z M807.7,1738.47l-7.74-15.48h9.81l7.74,15.48H807.7z M823.18,1738.47l-7.74-15.48h9.81l7.74,15.48H823.18z
		 M840.73,1722.98l7.74,15.48h-9.81l-7.74-15.48H840.73z M857.76,1738.47h-3.61l-7.74-15.48h11.35V1738.47z M852.6,1704.92
		c0,5.68-4.64,10.32-10.32,10.32s-10.32-4.65-10.32-10.32c0-5.68,4.64-10.32,10.32-10.32S852.6,1699.24,852.6,1704.92z
		 M831.95,1635.25v15.48H713.25v-15.48H831.95z M713.25,1753.95v-98.06h118.71v37.42c-3.1,2.84-5.16,6.97-5.16,11.61
		c0,5.42,2.84,10.06,6.97,12.9h-46.97c2.58-2.84,3.87-6.45,3.87-10.32c0-8.52-6.97-15.48-15.48-15.48
		c-8.52,0-15.48,6.97-15.48,15.48c0,3.87,1.55,7.48,3.87,10.32h-9.03v25.81h11.87l-3.1,10.32L713.25,1753.95z M770.79,1779.76
		h-10.06l11.35-36.13h10.06L770.79,1779.76z M783.95,1753.95l3.1-10.32h42.84l3.1,10.32H783.95z"/>
</g>
<g>
	<g>
		<polygon class="st0" points="-54.12,2233.94 -69.66,2233.94 -91.68,2156.21 -76.13,2156.21 		"/>
		<polygon class="st0" points="-16.56,2233.94 -32.1,2233.94 -54.12,2156.21 -38.57,2156.21 		"/>
		<polygon class="st0" points="21,2233.94 5.46,2233.94 -16.56,2156.21 -1.01,2156.21 		"/>
		<polygon class="st0" points="58.56,2233.94 43.02,2233.94 21,2156.21 36.55,2156.21 		"/>
		<polygon class="st0" points="96.12,2233.94 80.58,2233.94 58.56,2156.21 74.11,2156.21 		"/>
		<polygon class="st0" points="133.68,2233.94 118.14,2233.94 96.12,2156.21 111.67,2156.21 		"/>
		<polygon class="st0" points="171.24,2233.94 155.7,2233.94 133.68,2156.21 149.23,2156.21 		"/>
		<polygon class="st0" points="208.8,2233.94 193.26,2233.94 171.24,2156.21 186.79,2156.21 		"/>
		<polygon class="st0" points="246.36,2233.94 230.81,2233.94 208.8,2156.21 224.35,2156.21 		"/>
		<polygon class="st0" points="283.92,2233.94 268.37,2233.94 246.36,2156.21 261.91,2156.21 		"/>
		<polygon class="st0" points="321.48,2233.94 305.93,2233.94 283.92,2156.21 299.47,2156.21 		"/>
		<polygon class="st0" points="359.04,2233.94 343.49,2233.94 321.48,2156.21 337.03,2156.21 		"/>
		<polygon class="st0" points="396.6,2233.94 381.05,2233.94 359.04,2156.21 374.59,2156.21 		"/>
		<polygon class="st0" points="434.16,2233.94 418.61,2233.94 396.6,2156.21 412.15,2156.21 		"/>
		<polygon class="st0" points="471.72,2233.94 456.17,2233.94 434.16,2156.21 449.71,2156.21 		"/>
		<polygon class="st0" points="509.28,2233.94 493.73,2233.94 471.72,2156.21 487.27,2156.21 		"/>
		<polygon class="st0" points="546.84,2233.94 531.29,2233.94 509.28,2156.21 524.83,2156.21 		"/>
		<polygon class="st0" points="584.4,2233.94 568.85,2233.94 546.84,2156.21 562.39,2156.21 		"/>
		<polygon class="st0" points="621.96,2233.94 606.41,2233.94 584.4,2156.21 599.95,2156.21 		"/>
		<polygon class="st0" points="659.52,2233.94 643.97,2233.94 621.96,2156.21 637.51,2156.21 		"/>
		<polygon class="st0" points="697.08,2233.94 681.53,2233.94 659.52,2156.21 675.07,2156.21 		"/>
		<polygon class="st0" points="734.64,2233.94 719.09,2233.94 697.08,2156.21 712.63,2156.21 		"/>
		<polygon class="st0" points="772.2,2233.94 756.65,2233.94 734.64,2156.21 750.19,2156.21 		"/>
		<polygon class="st0" points="809.76,2233.94 794.21,2233.94 772.2,2156.21 787.75,2156.21 		"/>
		<polygon class="st0" points="847.32,2233.94 831.77,2233.94 809.76,2156.21 825.31,2156.21 		"/>
		<polygon class="st0" points="884.88,2233.94 869.33,2233.94 847.32,2156.21 862.87,2156.21 		"/>
		<polygon class="st0" points="922.44,2233.94 906.89,2233.94 884.88,2156.21 900.43,2156.21 		"/>
		<polygon class="st0" points="960,2233.94 944.45,2233.94 922.44,2156.21 937.99,2156.21 		"/>
		<polygon class="st0" points="997.56,2233.94 982.01,2233.94 960,2156.21 975.55,2156.21 		"/>
		<polygon class="st0" points="1035.12,2233.94 1019.57,2233.94 997.56,2156.21 1013.11,2156.21 		"/>
		<polygon class="st0" points="1072.68,2233.94 1057.13,2233.94 1035.12,2156.21 1050.67,2156.21 		"/>
		<polygon class="st0" points="1110.24,2233.94 1094.69,2233.94 1072.68,2156.21 1088.23,2156.21 		"/>
		<polygon class="st0" points="1147.8,2233.94 1132.25,2233.94 1110.24,2156.21 1125.79,2156.21 		"/>
		<polygon class="st0" points="1185.36,2233.94 1169.81,2233.94 1147.8,2156.21 1163.35,2156.21 		"/>
		<polygon class="st0" points="1222.92,2233.94 1207.37,2233.94 1185.36,2156.21 1200.91,2156.21 		"/>
		<polygon class="st0" points="1260.48,2233.94 1244.93,2233.94 1222.92,2156.21 1238.47,2156.21 		"/>
		<polygon class="st0" points="1298.04,2233.94 1282.49,2233.94 1260.48,2156.21 1276.03,2156.21 		"/>
		<polygon class="st0" points="1335.6,2233.94 1320.05,2233.94 1298.04,2156.21 1313.59,2156.21 		"/>
		<polygon class="st0" points="1373.16,2233.94 1357.61,2233.94 1335.6,2156.21 1351.15,2156.21 		"/>
		<polygon class="st0" points="1410.72,2233.94 1395.17,2233.94 1373.16,2156.21 1388.71,2156.21 		"/>
		<polygon class="st0" points="1448.28,2233.94 1432.73,2233.94 1410.72,2156.21 1426.27,2156.21 		"/>
		<polygon class="st0" points="1485.84,2233.94 1470.29,2233.94 1448.28,2156.21 1463.83,2156.21 		"/>
		<polygon class="st0" points="1523.4,2233.94 1507.85,2233.94 1485.84,2156.21 1501.39,2156.21 		"/>
		<polygon class="st0" points="1560.96,2233.94 1545.41,2233.94 1523.4,2156.21 1538.95,2156.21 		"/>
		<polygon class="st0" points="1598.52,2233.94 1582.97,2233.94 1560.96,2156.21 1576.51,2156.21 		"/>
		<polygon class="st0" points="1636.08,2233.94 1620.53,2233.94 1598.52,2156.21 1614.07,2156.21 		"/>
		<polygon class="st0" points="1673.64,2233.94 1658.09,2233.94 1636.08,2156.21 1651.63,2156.21 		"/>
		<polygon class="st0" points="1711.2,2233.94 1695.65,2233.94 1673.64,2156.21 1689.19,2156.21 		"/>
		<polygon class="st0" points="1748.76,2233.94 1733.21,2233.94 1711.2,2156.21 1726.74,2156.21 		"/>
		<polygon class="st0" points="1786.32,2233.94 1770.77,2233.94 1748.76,2156.21 1764.3,2156.21 		"/>
		<polygon class="st0" points="1823.88,2233.94 1808.33,2233.94 1786.32,2156.21 1801.86,2156.21 		"/>
		<polygon class="st0" points="1861.44,2233.94 1845.89,2233.94 1823.88,2156.21 1839.42,2156.21 		"/>
		<polygon class="st0" points="1899,2233.94 1883.45,2233.94 1861.44,2156.21 1876.98,2156.21 		"/>
		<polygon class="st0" points="1936.56,2233.94 1921.01,2233.94 1899,2156.21 1914.54,2156.21 		"/>
		<polygon class="st0" points="1974.12,2233.94 1958.57,2233.94 1936.56,2156.21 1952.1,2156.21 		"/>
		<polygon class="st0" points="2011.68,2233.94 1996.13,2233.94 1974.12,2156.21 1989.66,2156.21 		"/>
	</g>
	<rect x="-5.83" y="2233.94" class="st0" width="1931.66" height="13.56"/>
	<rect x="-5.83" y="2156.21" class="st0" width="1931.66" height="13.56"/>
</g>
<g>
	<path class="st0" d="M47.29,47.38h5.16v5.16h-5.16V47.38z"/>
	<path class="st0" d="M57.62,47.38h5.16v5.16h-5.16V47.38z"/>
	<path class="st0" d="M67.94,47.38h5.16v5.16h-5.16V47.38z"/>
	<path class="st0" d="M171.93,191.9h20.9l-12.9-41.29h11.87V124.8h-12.13c4.13-2.84,6.97-7.48,6.97-12.9
		c0-8.52-6.97-15.48-15.48-15.48c-1.81,0-3.61,0.26-5.16,1.03V37.06H36.97v129.03h53.42l-8,25.81h20.9l8-25.81h52.64L171.93,191.9z
		 M185.61,186.73h-10.06l-11.35-36.13h10.06L185.61,186.73z M93.74,114.48c0-5.68,4.64-10.32,10.32-10.32s10.32,4.64,10.32,10.32
		c0,5.68-4.64,10.32-10.32,10.32S93.74,120.16,93.74,114.48z M92.19,129.96l7.74,15.48H88.58v-15.48H92.19z M105.61,145.45
		l-7.74-15.48h9.81l7.74,15.48H105.61z M121.1,145.45l-7.74-15.48h9.81l7.74,15.48H121.1z M136.58,145.45l-7.74-15.48h9.81
		l7.74,15.48H136.58z M152.06,145.45l-7.74-15.48h9.81l7.74,15.48H152.06z M169.61,129.96l7.74,15.48h-9.81l-7.74-15.48H169.61z
		 M186.64,145.45h-3.61l-7.74-15.48h11.35V145.45z M181.48,111.9c0,5.68-4.65,10.32-10.32,10.32s-10.32-4.64-10.32-10.32
		c0-5.68,4.64-10.32,10.32-10.32S181.48,106.22,181.48,111.9z M160.84,42.22v15.48H42.13V42.22H160.84z M42.13,160.93V62.87h118.71
		v37.42c-3.1,2.84-5.16,6.97-5.16,11.61c0,5.42,2.84,10.06,6.97,12.9h-46.97c2.58-2.84,3.87-6.45,3.87-10.32
		c0-8.52-6.97-15.48-15.48-15.48s-15.48,6.97-15.48,15.48c0,3.87,1.55,7.48,3.87,10.32h-9.03v25.81h11.87l-3.1,10.32L42.13,160.93z
		 M99.68,186.73H89.61l11.35-36.13h10.06L99.68,186.73z M112.84,160.93l3.1-10.32h42.84l3.1,10.32H112.84z"/>
</g>
</svg>
