<?xml version="1.0" encoding="utf-8"?>
<!-- Generator: Adobe Illustrator 26.0.1, SVG Export Plug-In . SVG Version: 6.00 Build 0)  -->
<svg version="1.1" id="Capa_1" xmlns="http://www.w3.org/2000/svg" xmlns:xlink="http://www.w3.org/1999/xlink" x="0px" y="0px"
	 viewBox="0 0 1920 91.29" style="enable-background:new 0 0 1920 91.29;" xml:space="preserve">
<style type="text/css">
	.st0{fill:#E4D4C2;}
	.st1{clip-path:url(#SVGID_00000036931404953696868940000013260586490644157848_);}
</style>
<g>
	<path class="st0" d="M718.41,1343.33h5.16v5.16h-5.16V1343.33z"/>
	<path class="st0" d="M728.73,1343.33h5.16v5.16h-5.16V1343.33z"/>
	<path class="st0" d="M739.06,1343.33h5.16v5.16h-5.16V1343.33z"/>
	<path class="st0" d="M843.05,1487.84h20.9l-12.9-41.29h11.87v-25.81h-12.13c4.13-2.84,6.97-7.48,6.97-12.9
		c0-8.52-6.97-15.48-15.48-15.48c-1.81,0-3.61,0.26-5.16,1.03V1333H708.09v129.03h53.42l-8,25.81h20.9l8-25.81h52.64L843.05,1487.84
		z M856.73,1482.68h-10.06l-11.35-36.13h10.06L856.73,1482.68z M764.86,1410.42c0-5.68,4.65-10.32,10.32-10.32
		c5.68,0,10.32,4.65,10.32,10.32s-4.65,10.32-10.32,10.32C769.5,1420.74,764.86,1416.1,764.86,1410.42z M763.31,1425.9l7.74,15.48
		H759.7v-15.48H763.31z M776.73,1441.39l-7.74-15.48h9.81l7.74,15.48H776.73z M792.21,1441.39l-7.74-15.48h9.81l7.74,15.48H792.21z
		 M807.7,1441.39l-7.74-15.48h9.81l7.74,15.48H807.7z M823.18,1441.39l-7.74-15.48h9.81l7.74,15.48H823.18z M840.73,1425.9
		l7.74,15.48h-9.81l-7.74-15.48H840.73z M857.76,1441.39h-3.61l-7.74-15.48h11.35V1441.39z M852.6,1407.84
		c0,5.68-4.64,10.32-10.32,10.32s-10.32-4.64-10.32-10.32s4.64-10.32,10.32-10.32S852.6,1402.16,852.6,1407.84z M831.95,1338.17
		v15.48H713.25v-15.48H831.95z M713.25,1456.87v-98.06h118.71v37.42c-3.1,2.84-5.16,6.97-5.16,11.61c0,5.42,2.84,10.06,6.97,12.9
		h-46.97c2.58-2.84,3.87-6.45,3.87-10.32c0-8.52-6.97-15.48-15.48-15.48c-8.52,0-15.48,6.97-15.48,15.48
		c0,3.87,1.55,7.48,3.87,10.32h-9.03v25.81h11.87l-3.1,10.32L713.25,1456.87z M770.79,1482.68h-10.06l11.35-36.13h10.06
		L770.79,1482.68z M783.95,1456.87l3.1-10.32h42.84l3.1,10.32H783.95z"/>
</g>
<g>
	<g>
		<polygon class="st0" points="-54.12,1936.86 -69.66,1936.86 -91.68,1859.13 -76.13,1859.13 		"/>
		<polygon class="st0" points="-16.56,1936.86 -32.1,1936.86 -54.12,1859.13 -38.57,1859.13 		"/>
		<polygon class="st0" points="21,1936.86 5.46,1936.86 -16.56,1859.13 -1.01,1859.13 		"/>
		<polygon class="st0" points="58.56,1936.86 43.02,1936.86 21,1859.13 36.55,1859.13 		"/>
		<polygon class="st0" points="96.12,1936.86 80.58,1936.86 58.56,1859.13 74.11,1859.13 		"/>
		<polygon class="st0" points="133.68,1936.86 118.14,1936.86 96.12,1859.13 111.67,1859.13 		"/>
		<polygon class="st0" points="171.24,1936.86 155.7,1936.86 133.68,1859.13 149.23,1859.13 		"/>
		<polygon class="st0" points="208.8,1936.86 193.26,1936.86 171.24,1859.13 186.79,1859.13 		"/>
		<polygon class="st0" points="246.36,1936.86 230.81,1936.86 208.8,1859.13 224.35,1859.13 		"/>
		<polygon class="st0" points="283.92,1936.86 268.37,1936.86 246.36,1859.13 261.91,1859.13 		"/>
		<polygon class="st0" points="321.48,1936.86 305.93,1936.86 283.92,1859.13 299.47,1859.13 		"/>
		<polygon class="st0" points="359.04,1936.86 343.49,1936.86 321.48,1859.13 337.03,1859.13 		"/>
		<polygon class="st0" points="396.6,1936.86 381.05,1936.86 359.04,1859.13 374.59,1859.13 		"/>
		<polygon class="st0" points="434.16,1936.86 418.61,1936.86 396.6,1859.13 412.15,1859.13 		"/>
		<polygon class="st0" points="471.72,1936.86 456.17,1936.86 434.16,1859.13 449.71,1859.13 		"/>
		<polygon class="st0" points="509.28,1936.86 493.73,1936.86 471.72,1859.13 487.27,1859.13 		"/>
		<polygon class="st0" points="546.84,1936.86 531.29,1936.86 509.28,1859.13 524.83,1859.13 		"/>
		<polygon class="st0" points="584.4,1936.86 568.85,1936.86 546.84,1859.13 562.39,1859.13 		"/>
		<polygon class="st0" points="621.96,1936.86 606.41,1936.86 584.4,1859.13 599.95,1859.13 		"/>
		<polygon class="st0" points="659.52,1936.86 643.97,1936.86 621.96,1859.13 637.51,1859.13 		"/>
		<polygon class="st0" points="697.08,1936.86 681.53,1936.86 659.52,1859.13 675.07,1859.13 		"/>
		<polygon class="st0" points="734.64,1936.86 719.09,1936.86 697.08,1859.13 712.63,1859.13 		"/>
		<polygon class="st0" points="772.2,1936.86 756.65,1936.86 734.64,1859.13 750.19,1859.13 		"/>
		<polygon class="st0" points="809.76,1936.86 794.21,1936.86 772.2,1859.13 787.75,1859.13 		"/>
		<polygon class="st0" points="847.32,1936.86 831.77,1936.86 809.76,1859.13 825.31,1859.13 		"/>
		<polygon class="st0" points="884.88,1936.86 869.33,1936.86 847.32,1859.13 862.87,1859.13 		"/>
		<polygon class="st0" points="922.44,1936.86 906.89,1936.86 884.88,1859.13 900.43,1859.13 		"/>
		<polygon class="st0" points="960,1936.86 944.45,1936.86 922.44,1859.13 937.99,1859.13 		"/>
		<polygon class="st0" points="997.56,1936.86 982.01,1936.86 960,1859.13 975.55,1859.13 		"/>
		<polygon class="st0" points="1035.12,1936.86 1019.57,1936.86 997.56,1859.13 1013.11,1859.13 		"/>
		<polygon class="st0" points="1072.68,1936.86 1057.13,1936.86 1035.12,1859.13 1050.67,1859.13 		"/>
		<polygon class="st0" points="1110.24,1936.86 1094.69,1936.86 1072.68,1859.13 1088.23,1859.13 		"/>
		<polygon class="st0" points="1147.8,1936.86 1132.25,1936.86 1110.24,1859.13 1125.79,1859.13 		"/>
		<polygon class="st0" points="1185.36,1936.86 1169.81,1936.86 1147.8,1859.13 1163.35,1859.13 		"/>
		<polygon class="st0" points="1222.92,1936.86 1207.37,1936.86 1185.36,1859.13 1200.91,1859.13 		"/>
		<polygon class="st0" points="1260.48,1936.86 1244.93,1936.86 1222.92,1859.13 1238.47,1859.13 		"/>
		<polygon class="st0" points="1298.04,1936.86 1282.49,1936.86 1260.48,1859.13 1276.03,1859.13 		"/>
		<polygon class="st0" points="1335.6,1936.86 1320.05,1936.86 1298.04,1859.13 1313.59,1859.13 		"/>
		<polygon class="st0" points="1373.16,1936.86 1357.61,1936.86 1335.6,1859.13 1351.15,1859.13 		"/>
		<polygon class="st0" points="1410.72,1936.86 1395.17,1936.86 1373.16,1859.13 1388.71,1859.13 		"/>
		<polygon class="st0" points="1448.28,1936.86 1432.73,1936.86 1410.72,1859.13 1426.27,1859.13 		"/>
		<polygon class="st0" points="1485.84,1936.86 1470.29,1936.86 1448.28,1859.13 1463.83,1859.13 		"/>
		<polygon class="st0" points="1523.4,1936.86 1507.85,1936.86 1485.84,1859.13 1501.39,1859.13 		"/>
		<polygon class="st0" points="1560.96,1936.86 1545.41,1936.86 1523.4,1859.13 1538.95,1859.13 		"/>
		<polygon class="st0" points="1598.52,1936.86 1582.97,1936.86 1560.96,1859.13 1576.51,1859.13 		"/>
		<polygon class="st0" points="1636.08,1936.86 1620.53,1936.86 1598.52,1859.13 1614.07,1859.13 		"/>
		<polygon class="st0" points="1673.64,1936.86 1658.09,1936.86 1636.08,1859.13 1651.63,1859.13 		"/>
		<polygon class="st0" points="1711.2,1936.86 1695.65,1936.86 1673.64,1859.13 1689.19,1859.13 		"/>
		<polygon class="st0" points="1748.76,1936.86 1733.21,1936.86 1711.2,1859.13 1726.74,1859.13 		"/>
		<polygon class="st0" points="1786.32,1936.86 1770.77,1936.86 1748.76,1859.13 1764.3,1859.13 		"/>
		<polygon class="st0" points="1823.88,1936.86 1808.33,1936.86 1786.32,1859.13 1801.86,1859.13 		"/>
		<polygon class="st0" points="1861.44,1936.86 1845.89,1936.86 1823.88,1859.13 1839.42,1859.13 		"/>
		<polygon class="st0" points="1899,1936.86 1883.45,1936.86 1861.44,1859.13 1876.98,1859.13 		"/>
		<polygon class="st0" points="1936.56,1936.86 1921.01,1936.86 1899,1859.13 1914.54,1859.13 		"/>
		<polygon class="st0" points="1974.12,1936.86 1958.57,1936.86 1936.56,1859.13 1952.1,1859.13 		"/>
		<polygon class="st0" points="2011.68,1936.86 1996.13,1936.86 1974.12,1859.13 1989.66,1859.13 		"/>
	</g>
	<rect x="-5.83" y="1936.86" class="st0" width="1931.66" height="13.56"/>
	<rect x="-5.83" y="1859.13" class="st0" width="1931.66" height="13.56"/>
</g>
<g>
	<defs>
		<rect id="SVGID_1_" width="1920" height="91.29"/>
	</defs>
	<clipPath id="SVGID_00000132057315368529248960000003509993809831602087_">
		<use xlink:href="#SVGID_1_"  style="overflow:visible;"/>
	</clipPath>
	<g style="clip-path:url(#SVGID_00000132057315368529248960000003509993809831602087_);">
		<g>
			<polygon class="st0" points="-54.12,77.73 -69.66,77.73 -91.68,0 -76.13,0 			"/>
			<polygon class="st0" points="-16.56,77.73 -32.1,77.73 -54.12,0 -38.57,0 			"/>
			<polygon class="st0" points="21,77.73 5.46,77.73 -16.56,0 -1.01,0 			"/>
			<polygon class="st0" points="58.56,77.73 43.02,77.73 21,0 36.55,0 			"/>
			<polygon class="st0" points="96.12,77.73 80.58,77.73 58.56,0 74.11,0 			"/>
			<polygon class="st0" points="133.68,77.73 118.14,77.73 96.12,0 111.67,0 			"/>
			<polygon class="st0" points="171.24,77.73 155.7,77.73 133.68,0 149.23,0 			"/>
			<polygon class="st0" points="208.8,77.73 193.26,77.73 171.24,0 186.79,0 			"/>
			<polygon class="st0" points="246.36,77.73 230.81,77.73 208.8,0 224.35,0 			"/>
			<polygon class="st0" points="283.92,77.73 268.37,77.73 246.36,0 261.91,0 			"/>
			<polygon class="st0" points="321.48,77.73 305.93,77.73 283.92,0 299.47,0 			"/>
			<polygon class="st0" points="359.04,77.73 343.49,77.73 321.48,0 337.03,0 			"/>
			<polygon class="st0" points="396.6,77.73 381.05,77.73 359.04,0 374.59,0 			"/>
			<polygon class="st0" points="434.16,77.73 418.61,77.73 396.6,0 412.15,0 			"/>
			<polygon class="st0" points="471.72,77.73 456.17,77.73 434.16,0 449.71,0 			"/>
			<polygon class="st0" points="509.28,77.73 493.73,77.73 471.72,0 487.27,0 			"/>
			<polygon class="st0" points="546.84,77.73 531.29,77.73 509.28,0 524.83,0 			"/>
			<polygon class="st0" points="584.4,77.73 568.85,77.73 546.84,0 562.39,0 			"/>
			<polygon class="st0" points="621.96,77.73 606.41,77.73 584.4,0 599.95,0 			"/>
			<polygon class="st0" points="659.52,77.73 643.97,77.73 621.96,0 637.51,0 			"/>
			<polygon class="st0" points="697.08,77.73 681.53,77.73 659.52,0 675.07,0 			"/>
			<polygon class="st0" points="734.64,77.73 719.09,77.73 697.08,0 712.63,0 			"/>
			<polygon class="st0" points="772.2,77.73 756.65,77.73 734.64,0 750.19,0 			"/>
			<polygon class="st0" points="809.76,77.73 794.21,77.73 772.2,0 787.75,0 			"/>
			<polygon class="st0" points="847.32,77.73 831.77,77.73 809.76,0 825.31,0 			"/>
			<polygon class="st0" points="884.88,77.73 869.33,77.73 847.32,0 862.87,0 			"/>
			<polygon class="st0" points="922.44,77.73 906.89,77.73 884.88,0 900.43,0 			"/>
			<polygon class="st0" points="960,77.73 944.45,77.73 922.44,0 937.99,0 			"/>
			<polygon class="st0" points="997.56,77.73 982.01,77.73 960,0 975.55,0 			"/>
			<polygon class="st0" points="1035.12,77.73 1019.57,77.73 997.56,0 1013.11,0 			"/>
			<polygon class="st0" points="1072.68,77.73 1057.13,77.73 1035.12,0 1050.67,0 			"/>
			<polygon class="st0" points="1110.24,77.73 1094.69,77.73 1072.68,0 1088.23,0 			"/>
			<polygon class="st0" points="1147.8,77.73 1132.25,77.73 1110.24,0 1125.79,0 			"/>
			<polygon class="st0" points="1185.36,77.73 1169.81,77.73 1147.8,0 1163.35,0 			"/>
			<polygon class="st0" points="1222.92,77.73 1207.37,77.73 1185.36,0 1200.91,0 			"/>
			<polygon class="st0" points="1260.48,77.73 1244.93,77.73 1222.92,0 1238.47,0 			"/>
			<polygon class="st0" points="1298.04,77.73 1282.49,77.73 1260.48,0 1276.03,0 			"/>
			<polygon class="st0" points="1335.6,77.73 1320.05,77.73 1298.04,0 1313.59,0 			"/>
			<polygon class="st0" points="1373.16,77.73 1357.61,77.73 1335.6,0 1351.15,0 			"/>
			<polygon class="st0" points="1410.72,77.73 1395.17,77.73 1373.16,0 1388.71,0 			"/>
			<polygon class="st0" points="1448.28,77.73 1432.73,77.73 1410.72,0 1426.27,0 			"/>
			<polygon class="st0" points="1485.84,77.73 1470.29,77.73 1448.28,0 1463.83,0 			"/>
			<polygon class="st0" points="1523.4,77.73 1507.85,77.73 1485.84,0 1501.39,0 			"/>
			<polygon class="st0" points="1560.96,77.73 1545.41,77.73 1523.4,0 1538.95,0 			"/>
			<polygon class="st0" points="1598.52,77.73 1582.97,77.73 1560.96,0 1576.51,0 			"/>
			<polygon class="st0" points="1636.08,77.73 1620.53,77.73 1598.52,0 1614.07,0 			"/>
			<polygon class="st0" points="1673.64,77.73 1658.09,77.73 1636.08,0 1651.63,0 			"/>
			<polygon class="st0" points="1711.2,77.73 1695.65,77.73 1673.64,0 1689.19,0 			"/>
			<polygon class="st0" points="1748.76,77.73 1733.21,77.73 1711.2,0 1726.74,0 			"/>
			<polygon class="st0" points="1786.32,77.73 1770.77,77.73 1748.76,0 1764.3,0 			"/>
			<polygon class="st0" points="1823.88,77.73 1808.33,77.73 1786.32,0 1801.86,0 			"/>
			<polygon class="st0" points="1861.44,77.73 1845.89,77.73 1823.88,0 1839.42,0 			"/>
			<polygon class="st0" points="1899,77.73 1883.45,77.73 1861.44,0 1876.98,0 			"/>
			<polygon class="st0" points="1936.56,77.73 1921.01,77.73 1899,0 1914.54,0 			"/>
			<polygon class="st0" points="1974.12,77.73 1958.57,77.73 1936.56,0 1952.1,0 			"/>
			<polygon class="st0" points="2011.68,77.73 1996.13,77.73 1974.12,0 1989.66,0 			"/>
		</g>
		<rect x="-5.83" y="77.73" class="st0" width="1931.66" height="13.56"/>
		<rect x="-5.83" y="0" class="st0" width="1931.66" height="13.56"/>
	</g>
</g>
</svg>
