<?xml version="1.0" encoding="utf-8"?>
<!-- Generator: Adobe Illustrator 26.0.1, SVG Export Plug-In . SVG Version: 6.00 Build 0)  -->
<svg version="1.1" id="Capa_1" xmlns="http://www.w3.org/2000/svg" xmlns:xlink="http://www.w3.org/1999/xlink" x="0px" y="0px"
	 viewBox="0 0 284.79 82.41" style="enable-background:new 0 0 284.79 82.41;" xml:space="preserve">
<style type="text/css">
	.st0{clip-path:url(#SVGID_00000075154951970717855550000002013631061137305022_);}
	.st1{fill:#606060;}
</style>
<g>
	<defs>
		<rect id="SVGID_1_" x="13.07" y="2.69" width="258.65" height="77.03"/>
	</defs>
	<clipPath id="SVGID_00000181766460525242143260000006927138859833260196_">
		<use xlink:href="#SVGID_1_"  style="overflow:visible;"/>
	</clipPath>
	<g style="clip-path:url(#SVGID_00000181766460525242143260000006927138859833260196_);">
		<path class="st1" d="M13.07,53.48c0-15.61,11.8-25.91,26-25.91c6.12,0.02,12.05,2.14,16.81,5.99l-2.86,3.4
			c-3.98-3.09-8.88-4.77-13.92-4.78c-11.79,0-21.35,8.5-21.35,21.35s9.59,21.62,21.35,21.62c5.05,0.03,9.96-1.65,13.92-4.78l3,3.4
			c-4.76,3.9-10.73,6.02-16.89,6c-14.23,0-26-10.51-26-26.24"/>
		<rect x="140.01" y="2.69" class="st1" width="4.67" height="75.76"/>
		<rect x="165.71" y="28.84" class="st1" width="4.67" height="49.61"/>
		<path class="st1" d="M93.11,27.99c-14.29-0.01-25.88,11.57-25.89,25.85c-0.01,14.29,11.57,25.88,25.85,25.89
			c8.48,0.01,16.42-4.15,21.26-11.11v9.84h4.63v-24.6c0-14.29-11.58-25.87-25.87-25.87 M93.1,75.11
			c-11.74,0.01-21.25-9.5-21.26-21.24c-0.01-11.74,9.5-21.25,21.24-21.26s21.25,9.5,21.26,21.24c0,0,0,0.01,0,0.01
			C114.33,65.6,104.82,75.11,93.1,75.11"/>
		<polygon class="st1" points="210.96,28.84 210.96,32.99 198.96,32.99 198.96,78.45 194.29,78.45 194.29,32.99 185.26,32.99 
			185.26,28.84 194.29,28.84 194.29,2.69 198.96,2.69 198.96,28.84 		"/>
		<path class="st1" d="M224.98,49.66c-1.53-0.31-3.09-0.47-4.65-0.46c-1.2,0-2.4,0.14-3.57,0.4c-2.76,0.65-4.71,3.12-4.69,5.96
			c2.38-1.45,5.1-2.25,7.88-2.31c1.56-0.03,3.12,0.1,4.66,0.38c7.59,1.35,15.19,5.63,22.78,3.82c2.7-0.67,4.58-3.11,4.55-5.89
			c-9,5.45-18-0.14-27-1.85"/>
		<path class="st1" d="M245.86,27.99c-10.56,0-20.06,6.42-24,16.21c1.05,0.07,2.09,0.21,3.12,0.41c0.53,0.1,1.06,0.21,1.59,0.34
			c4.97-10.63,17.62-15.22,28.25-10.25c10.63,4.97,15.22,17.62,10.25,28.25s-17.62,15.22-28.25,10.25
			c-7.5-3.51-12.28-11.06-12.25-19.34v-0.25c0.02-1.33,0.16-2.65,0.41-3.95l0,0c-1.5-0.3-3.03-0.46-4.56-0.46
			c-0.24,1.32-0.38,2.66-0.41,4c0,0.21,0,0.42,0,0.63c0,14.28,11.57,25.86,25.85,25.87c8.48,0,16.41-4.15,21.25-11.11v9.87h4.63
			v-24.6c0.01-14.28-11.57-25.86-25.85-25.87c0,0-0.01,0-0.01,0"/>
		<path class="st1" d="M171.55,15.76c0.01,1.91-1.53,3.45-3.44,3.46c-1.91,0.01-3.45-1.53-3.46-3.44c-0.01-1.91,1.53-3.45,3.44-3.46
			c0,0,0.01,0,0.01,0c1.9-0.01,3.44,1.53,3.45,3.43C171.55,15.76,171.55,15.76,171.55,15.76"/>
	</g>
</g>
</svg>
